<svg xmlns="http://www.w3.org/2000/svg" viewBox="0 0 278.51 46" role="img" aria-label="Krotzer &amp; Eisele GmbH - Fußbodenheizung einfräsen">
  <title>Krotzer &amp; Eisele GmbH</title>
  <rect width="46" height="46" rx="11" fill="#E1322A"/>
  <g stroke="#fff" stroke-width="2.6" fill="none" stroke-linecap="round"><path d="M9 16 q7 -7 14 0 t14 0"/><path d="M9 24 q7 -7 14 0 t14 0"/><path d="M9 32 q7 -7 14 0 t14 0"/></g>
  <path fill="#1E1518" d="M61.35310531107739 21.206172989377844 61.171198786039454 17.480575417298937 66.22157450682853 12.054799999999997H69.87707860394538L64.85214506828528 17.521173292867978L63.00063975720789 19.443932018209406ZM58.381774203338395 23.814799999999998V12.054799999999997H61.664198482549324V23.814799999999998ZM66.27660151745069 23.814799999999998 62.44044006069803 18.963678907435508 64.60941183611533 16.643507132018208 70.13834537177542 23.814799999999998Z M70.53049408194234 23.814799999999998V14.703400303490135H73.56902518968134V17.365919878603943L73.10614567526557 16.602386646433988Q73.51571896813354 15.584533535660087 74.42147223065251 15.070393626707128Q75.32722549317148 14.556253717754169 76.61561213960547 14.556253717754169V17.431411836115323Q76.40531896813354 17.40302518968133 76.2407924127466 17.388831866464336Q76.07626585735964 17.374638543247343 75.9059459787557 17.374638543247343Q74.92923884673749 17.374638543247343 74.32589195751139 17.908465553869497Q73.72254506828529 18.44229256449165 73.72254506828529 19.638559635811834V23.814799999999998Z M82.25054628224584 23.961946585735962Q80.75298912849118 23.961946585735962 79.59496133207564 23.356566616084976Q78.4369335356601 22.75118664643399 77.77159362670714 21.688042526555385Q77.10625371775419 20.62489840667678 77.10625371775419 19.252425158439703Q77.10625371775419 17.874546889226096 77.77256931019576 16.814760282377776Q78.43888490263733 15.754973675529456 79.59479571383764 15.155613696641812Q80.75070652503794 14.556253717754169 82.25054628224584 14.556253717754169Q83.75038603945373 14.556253717754169 84.91498809945662 15.155275713134275Q86.0795901594595 15.75429770851438 86.7372145030985 16.813494105357Q87.39483884673749 17.872690502199625 87.39483884673749 19.252486924258044Q87.39483884673749 20.626853414264033 86.73789893778454 21.689020030349013Q86.08095902883157 22.75118664643399 84.91441123892507 23.356566616084976Q83.74786344901857 23.961946585735962 82.25054628224584 23.961946585735962ZM82.25054628224584 21.42221487101669Q82.79566676783006 21.42221487101669 83.22550713201822 21.171088012139602Q83.65534749620639 20.919961153262516 83.90908103186648 20.427554172989375Q84.16281456752657 19.935147192716236 84.16281456752657 19.252650602205076Q84.16281456752657 18.554666464339906 83.90908103186648 18.076452807283758Q83.65534749620639 17.598239150227613 83.22550713201822 17.347112291350527Q82.79566676783006 17.09598543247344 82.25315295902884 17.09598543247344Q81.71063915022762 17.09598543247344 81.28079878603947 17.347112291350527Q80.8509584218513 17.598239150227613 80.5946182094082 18.076452807283758Q80.3382779969651 18.554666464339906 80.3382779969651 19.252650602205076Q80.3382779969651 19.935147192716236 80.5946182094082 20.427554172989375Q80.8509584218513 20.919961153262516 81.28043078461127 21.171088012139602Q81.70990314737125 21.42221487101669 82.25054628224584 21.42221487101669Z M92.7627192716237 23.961946585735962Q91.01550652503795 23.961946585735962 90.0457335356601 23.101086798179058Q89.07596054628226 22.240227010622153 89.07596054628226 20.48780091047041V12.668280424886188H92.26801153262521V20.4489875569044Q92.26801153262521 20.947187860394536 92.53130500758726 21.22409468892261Q92.79459848254933 21.501001517450682 93.2244388467375 21.501001517450682Q93.78462579666163 21.501001517450682 94.19071927162369 21.20729468892261L94.9884388467375 23.438253110773896Q94.57249226100154 23.705893171471924 93.98535902883158 23.833919878603943Q93.39822579666162 23.961946585735962 92.7627192716237 23.961946585735962ZM87.74297359635814 17.08439878603945V14.703400303490135H94.33729226100154V17.08439878603945Z M95.5677201820941 23.814799999999998V21.938387860394535L100.6859077389985 16.05205280728376L101.22409408194235 17.08439878603945H95.69169347496208V14.703400303490135H103.8032254931715V16.579812443095598L98.6850379362671 22.46614749620637L98.13642488619122 21.433801517450682H103.97238543247346V23.814799999999998Z M109.88770622154782 23.961946585735962Q108.27547981790593 23.961946585735962 107.07080000000002 23.35077329286798Q105.86612018209411 22.7396 105.20338694992415 21.671640060698024Q104.5406537177542 20.603680121396053 104.5406537177542 19.25330682852807Q104.5406537177542 17.879760242792106 105.19238027314114 16.81759362670713Q105.8441068285281 15.755427010622151 106.98158664643401 15.15584036418816Q108.11906646433994 14.556253717754169 109.54533292867984 14.556253717754169Q110.8904928679818 14.556253717754169 111.99697936267073 15.106887101669193Q113.10346585735965 15.657520485584216 113.76156570561459 16.710707132018207Q114.41966555386952 17.763893778452196 114.41966555386952 19.274160242792107Q114.41966555386952 19.44969347496206 114.40547223065252 19.667226707132016Q114.39127890743553 19.884759939301972 114.37447890743553 20.065506525037932H107.16091836115328V18.390707132018207H112.68170682852809L111.46745432473446 18.86226707132018Q111.47266767830048 18.241253414264033 111.22994081942339 17.7876597875569Q110.9872139605463 17.33406616084977 110.56519362670716 17.07975265553869Q110.143173292868 16.825439150227616 109.56850622154782 16.825439150227616Q108.99383915022764 16.825439150227616 108.56341881638849 17.07975265553869Q108.13299848254934 17.33406616084977 107.89867162367224 17.790266464339908Q107.66434476479516 18.246466767830043 107.66434476479516 18.87790713201821V19.36569347496206Q107.66434476479516 20.031893778452197 107.94646494688925 20.52227405159332Q108.22858512898333 21.012654324734445 108.74879878603947 21.269574506828526Q109.26901244309562 21.526494688922607 109.98445280728379 21.526494688922607Q110.66455963581186 21.526494688922607 111.14393323216997 21.33242792109256Q111.62330682852809 21.138361153262515 112.0821201820941 20.745014264036417L113.76214567526557 22.49397329286798Q113.11099908952961 23.21115993930197 112.15165918057664 23.58655326251897Q111.19231927162369 23.961946585735962 109.88770622154782 23.961946585735962Z M115.73929408194236 23.814799999999998V14.703400303490135H118.77782518968137V17.365919878603943L118.31494567526559 16.602386646433988Q118.72451896813357 15.584533535660087 119.63027223065254 15.070393626707128Q120.53602549317151 14.556253717754169 121.8244121396055 14.556253717754169V17.431411836115323Q121.61411896813357 17.40302518968133 121.44959241274663 17.388831866464336Q121.28506585735967 17.374638543247343 121.11474597875572 17.374638543247343Q120.13803884673752 17.374638543247343 119.53469195751141 17.908465553869497Q118.93134506828531 18.44229256449165 118.93134506828531 19.638559635811834V23.814799999999998Z M137.17669317147195 24.02277329286798 130.1994670713202 17.78766616084977Q129.6230537177542 17.285986039453714 129.26127374810324 16.80979271623672Q128.89949377845224 16.333599393019725 128.72512048558426 15.862039453717752Q128.55074719271627 15.390479514415778 128.55074719271627 14.908492867981789Q128.55074719271627 14.00939969650986 129.0408470409712 13.326679817905916Q129.53094688922613 12.64395993930197 130.41758664643402 12.261613353566005Q131.3042264036419 11.879266767830043 132.49239939301975 11.879266767830043Q133.59019908952962 11.879266767830043 134.4012388467375 12.22222003034901Q135.2122786039454 12.565173292867978 135.66559180576633 13.203286494688918Q136.11890500758727 13.841399696509859 136.11890500758727 14.712106221547796Q136.11890500758727 15.482012746585733 135.73076509863432 16.116359332321696Q135.34262518968137 16.750705918057662 134.52811198786043 17.28830591805766Q133.71359878603948 17.82590591805766 132.4408522003035 18.349599393019723Q131.67501183611535 18.67458634294385 131.21330500758728 18.990306525037933Q130.75159817905921 19.306026707132016 130.55115811836117 19.639126858877084Q130.35071805766316 19.972227010622152 130.35071805766316 20.383533839150225Q130.35071805766316 20.730534142640362 130.56882488619124 21.015261001517448Q130.7869317147193 21.299987860394534 131.18751866464342 21.460454628224582Q131.58810561456755 21.620921396054626 132.1471326251897 21.620921396054626Q133.11689286798182 21.620921396054626 133.94356631259487 21.142121396054627Q134.77023975720792 20.663321396054627 135.36026646433993 19.737874658573595Q135.95029317147197 18.812427921092564 136.18433323217 17.500294385432472L138.74550470409716 18.277160546282243Q138.37474476479517 19.997133839150226 137.41308497723827 21.29682033383915Q136.45142518968137 22.59650682852807 135.0454321699545 23.321806676783005Q133.63943915022764 24.047106525037936 131.9136661608498 24.047106525037936Q130.56502640364192 24.047106525037936 129.50575326251902 23.617546585735962Q128.4464801213961 23.187986646433988 127.83675356600914 22.43864673748103Q127.22702701062218 21.68930682852807 127.22702701062218 20.735760242792107Q127.22702701062218 19.80828042488619 127.63457359635815 19.08674719271623Q128.04212018209412 18.365213960546278 128.90703338391506 17.76360060698027Q129.771946585736 17.16198725341426 131.11305311077393 16.604693778452198Q132.00518664643403 16.22293353566009 132.51266009104705 15.917640060698025Q133.0201335356601 15.61234658573596 133.23216024279213 15.337466464339906Q133.44418694992416 15.062586342943852 133.44418694992416 14.780466160849768Q133.44418694992416 14.428252503793624 133.20522670713206 14.208118968133533Q132.96626646433992 13.987985432473442 132.50398603945374 13.987985432473442Q132.00289226100153 13.987985432473442 131.72772534142644 14.235925644916538Q131.4525584218513 14.483865857359634 131.4525584218513 14.863306221547795Q131.4525584218513 15.08459969650986 131.5501717754173 15.29807314112291Q131.64778512898334 15.51154658573596 131.92440515933237 15.80062003034901Q132.20102518968136 16.08969347496206 132.70386525037938 16.546186949924124L138.89669195751142 22.054827921092564Z M145.06977420333843 23.814799999999998V12.054799999999997H154.27967951441582V14.633345068285278H148.35219848254934V21.23625493171472H154.50329286798183V23.814799999999998ZM148.1198919575114 19.085905918057662V16.610480728376324H153.5804528072838V19.085905918057662Z M156.04249408194238 23.814799999999998V14.703400303490135H159.2345450682853V23.814799999999998ZM157.63851957511383 13.698319271623667Q156.75853353566012 13.698319271623667 156.2229538694993 13.211692867981785Q155.68737420333844 12.725066464339905 155.68737420333844 12.006133535660087Q155.68737420333844 11.287200606980269 156.2229538694993 10.800574203338389Q156.75853353566012 10.313947799696507 157.63851957511383 10.313947799696507Q158.51850561456757 10.313947799696507 159.05408528072843 10.772187556904399Q159.58966494688926 11.230427314112289 159.58966494688926 11.949360242792105Q159.58966494688926 12.708266464339905 159.05669195751142 13.203292867981787Q158.52371896813358 13.698319271623667 157.63851957511383 13.698319271623667Z M164.43614628224586 23.961946585735962Q163.2757863429439 23.961946585735962 162.17248649468894 23.69691320182094Q161.06918664643402 23.431879817905916 160.4000801213961 23.023466464339908L161.35826646433992 20.84349438543247Q161.9926130500759 21.22989438543247 162.84999301972687 21.45872109256449Q163.70737298937786 21.687547799696507 164.53578634294388 21.687547799696507Q165.33406676783008 21.687547799696507 165.6480470409712 21.517814264036417Q165.9620273141123 21.348080728376324 165.9620273141123 21.05264036418816Q165.9620273141123 20.793693474962062 165.6712139605463 20.6648Q165.3804006069803 20.535906525037934 164.90218057663128 20.467259787556902Q164.42396054628227 20.39861305007587 163.85073383915025 20.320406373292865Q163.27750713201823 20.24219969650986 162.69848710166923 20.093606373292864Q162.1194670713202 19.94501305007587 161.6412470409712 19.65303975720789Q161.1630270106222 19.361066464339906 160.8722136570562 18.86169984825493Q160.58140030349017 18.362333232169952 160.58140030349017 17.577946585735962Q160.58140030349017 16.714773292867978 161.09496024279213 16.035240060698023Q161.6085201820941 15.355706828528069 162.598566616085 14.955980273141119Q163.5886130500759 14.556253717754169 165.0143059180577 14.556253717754169Q165.98581244309563 14.556253717754169 166.9651389984826 14.748873748103183Q167.94446555386952 14.941493778452198 168.62515872534146 15.322680424886189L167.6669723823976 17.502652503793623Q166.98743915022763 17.116252503793625 166.31746585735965 16.973452503793624Q165.64749256449167 16.830652503793623 165.04385250379366 16.830652503793623Q164.2380388467375 16.830652503793623 163.9046518968134 17.017186039453712Q163.57126494688924 17.203719575113805 163.57126494688924 17.470773292867978Q163.57126494688924 17.740146889226097 163.86207830045527 17.87744036418816Q164.15289165402126 18.014733839150225 164.6311116843703 18.088593930197266Q165.1093317147193 18.162454021244308 165.6825584218513 18.240660698027312Q166.25578512898332 18.318867374810317 166.82901183611534 18.47325402124431Q167.40223854324736 18.6276406676783 167.8804585735964 18.917007283763276Q168.3586786039454 19.206373899848252 168.64949195751143 19.703133839150226Q168.94030531107742 20.199893778452196 168.94030531107742 20.97906707132018Q168.94030531107742 21.80748042488619 168.42993201820946 22.48759362670713Q167.91955872534146 23.167706828528072 166.91589893778456 23.564826707132017Q165.91223915022763 23.961946585735962 164.43614628224586 23.961946585735962Z M174.92050622154784 23.961946585735962Q173.30827981790594 23.961946585735962 172.10360000000003 23.35077329286798Q170.89892018209412 22.7396 170.23618694992416 21.671640060698024Q169.5734537177542 20.603680121396053 169.5734537177542 19.25330682852807Q169.5734537177542 17.879760242792106 170.22518027314115 16.81759362670713Q170.8769068285281 15.755427010622151 172.01438664643402 15.15584036418816Q173.15186646433995 14.556253717754169 174.57813292867985 14.556253717754169Q175.92329286798181 14.556253717754169 177.02977936267075 15.106887101669193Q178.13626585735966 15.657520485584216 178.7943657056146 16.710707132018207Q179.45246555386953 17.763893778452196 179.45246555386953 19.274160242792107Q179.45246555386953 19.44969347496206 179.43827223065253 19.667226707132016Q179.42407890743553 19.884759939301972 179.40727890743554 20.065506525037932H172.1937183611533V18.390707132018207H177.7145068285281L176.50025432473447 18.86226707132018Q176.50546767830048 18.241253414264033 176.2627408194234 17.7876597875569Q176.02001396054632 17.33406616084977 175.59799362670717 17.07975265553869Q175.175973292868 16.825439150227616 174.60130622154782 16.825439150227616Q174.02663915022765 16.825439150227616 173.5962188163885 17.07975265553869Q173.16579848254935 17.33406616084977 172.93147162367228 17.790266464339908Q172.69714476479518 18.246466767830043 172.69714476479518 18.87790713201821V19.36569347496206Q172.69714476479518 20.031893778452197 172.97926494688926 20.52227405159332Q173.26138512898333 21.012654324734445 173.78159878603947 21.269574506828526Q174.30181244309563 21.526494688922607 175.0172528072838 21.526494688922607Q175.69735963581186 21.526494688922607 176.17673323216997 21.33242792109256Q176.6561068285281 21.138361153262515 177.11492018209412 20.745014264036417L178.79494567526558 22.49397329286798Q178.1437990895296 23.21115993930197 177.18445918057665 23.58655326251897Q176.2251192716237 23.961946585735962 174.92050622154784 23.961946585735962Z M180.77209408194238 23.814799999999998V11.349199999999996H183.96414506828532V23.814799999999998Z M190.62850622154784 23.961946585735962Q189.01627981790594 23.961946585735962 187.81160000000003 23.35077329286798Q186.60692018209411 22.7396 185.94418694992416 21.671640060698024Q185.2814537177542 20.603680121396053 185.2814537177542 19.25330682852807Q185.2814537177542 17.879760242792106 185.93318027314115 16.81759362670713Q186.5849068285281 15.755427010622151 187.72238664643402 15.15584036418816Q188.85986646433994 14.556253717754169 190.28613292867985 14.556253717754169Q191.6312928679818 14.556253717754169 192.73777936267072 15.106887101669193Q193.84426585735966 15.657520485584216 194.50236570561458 16.710707132018207Q195.16046555386953 17.763893778452196 195.16046555386953 19.274160242792107Q195.16046555386953 19.44969347496206 195.14627223065253 19.667226707132016Q195.13207890743553 19.884759939301972 195.11527890743554 20.065506525037932H187.90171836115329V18.390707132018207H193.4225068285281L192.20825432473447 18.86226707132018Q192.21346767830047 18.241253414264033 191.97074081942338 17.7876597875569Q191.72801396054632 17.33406616084977 191.30599362670716 17.07975265553869Q190.883973292868 16.825439150227616 190.30930622154784 16.825439150227616Q189.73463915022765 16.825439150227616 189.3042188163885 17.07975265553869Q188.87379848254935 17.33406616084977 188.63947162367225 17.790266464339908Q188.40514476479518 18.246466767830043 188.40514476479518 18.87790713201821V19.36569347496206Q188.40514476479518 20.031893778452197 188.68726494688926 20.52227405159332Q188.96938512898333 21.012654324734445 189.4895987860395 21.269574506828526Q190.00981244309563 21.526494688922607 190.7252528072838 21.526494688922607Q191.40535963581186 21.526494688922607 191.88473323217 21.33242792109256Q192.3641068285281 21.138361153262515 192.82292018209412 20.745014264036417L194.50294567526558 22.49397329286798Q193.8517990895296 23.21115993930197 192.89245918057665 23.58655326251897Q191.9331192716237 23.961946585735962 190.62850622154784 23.961946585735962Z M207.22921335356605 24.047106525037936Q205.82206676783008 24.047106525037936 204.63650682852813 23.601906525037933Q203.45094688922615 23.156706525037933 202.57937359635815 22.336113201820936Q201.70780030349016 21.515519878603943 201.22581365705616 20.397739908952957Q200.7438270106222 19.27995993930197 200.7438270106222 17.934799999999996Q200.7438270106222 16.589640060698024 201.22581365705616 15.471860091047038Q201.70780030349016 14.35408012139605 202.58777359635815 13.533486798179055Q203.46774688922613 12.71289347496206 204.6648934749621 12.26769347496206Q205.86204006069806 11.82249347496206 207.297573292868 11.82249347496206Q208.95093292867986 11.82249347496206 210.26017936267075 12.373999999999997Q211.56942579666165 12.925506525037934 212.4389723823976 13.965372989377842L210.31402731411234 15.881758421851288Q209.71270713201824 15.22250500758725 209.01116691957515 14.894905007587251Q208.30962670713205 14.567305007587251 207.46267981790595 14.567305007587251Q206.70842610015177 14.567305007587251 206.08799241274662 14.805398482549315Q205.46755872534146 15.043491957511378 205.02497177541733 15.489845523520483Q204.5823848254932 15.936199089529588 204.34168467374815 16.551999393019724Q204.10098452200307 17.16779969650986 204.10098452200307 17.934799999999996Q204.10098452200307 18.673413657056145 204.34168467374815 19.295007283763276Q204.5823848254932 19.916600910470407 205.02497177541733 20.36556115326252Q205.46755872534146 20.814521396054626 206.07379908952964 21.058408194233685Q206.6800394537178 21.302294992412744 207.42270652503797 21.302294992412744Q208.1676934749621 21.302294992412744 208.86865371775423 21.057248254931714Q209.56961396054632 20.81220151745068 210.29722731411232 20.221308042488616L212.1655326251897 22.551906525037936Q211.1476795144158 23.279519878603942 209.8274264036419 23.66331320182094Q208.507173292868 24.047106525037936 207.22921335356605 24.047106525037936ZM212.1655326251897 22.551906525037936 209.2168012139606 22.12610682852807V17.683373596358116H212.1655326251897Z M213.96889408194238 23.814799999999998V14.703400303490135H217.00742518968138V17.25237329286798L216.40377238239762 16.5236Q216.89850561456757 15.544560242792107 217.76949893778456 15.050406980273138Q218.64049226100155 14.556253717754169 219.73133232169957 14.556253717754169Q220.9565723823976 14.556253717754169 221.8889723823976 15.183647040971165Q222.8213723823976 15.81104036418816 223.1353590288316 17.140560242792105L222.0960661608498 16.91926676783004Q222.57399939301976 15.823786949924123 223.5556394537178 15.190020333839147Q224.53727951441581 14.556253717754169 225.82971957511384 14.556253717754169Q226.88695963581188 14.556253717754169 227.71855963581186 14.982047040971164Q228.55015963581187 15.40784036418816 229.02635295902888 16.302006980273138Q229.50254628224587 17.196173596358115 229.50254628224587 18.60969347496206V23.814799999999998H226.3104952959029V19.129346282245823Q226.3104952959029 18.152639150227614 225.93887496206378 17.710632169954472Q225.56725462822462 17.268625189681334 224.9311872534143 17.268625189681334Q224.47006676783008 17.268625189681334 224.1074264036419 17.483545371775413Q223.74478603945374 17.698465553869497 223.53826585735965 18.14047253414264Q223.33174567526558 18.58247951441578 223.33174567526558 19.30313323216995V23.814799999999998H220.13969468892265V19.129346282245823Q220.13969468892265 18.152639150227614 219.77966100151747 17.710632169954472Q219.41962731411232 17.268625189681334 218.76038664643403 17.268625189681334Q218.2992661608498 17.268625189681334 217.93662579666164 17.483545371775413Q217.57398543247348 17.698465553869497 217.36746525037938 18.14047253414264Q217.16094506828532 18.58247951441578 217.16094506828532 19.30313323216995V23.814799999999998Z M237.07703915022765 23.961946585735962Q235.85874597875573 23.961946585735962 235.04163247344465 23.460553262518964Q234.22451896813357 22.95915993930197 233.82277207890746 21.913793323216993Q233.4210251896814 20.868426707132016 233.4210251896814 19.25330682852807Q233.4210251896814 17.644560242792107 233.84536540212446 16.60759362670713Q234.26970561456756 15.570627010622152 235.09261244309562 15.06344036418816Q235.9155192716237 14.556253717754169 237.07703915022765 14.556253717754169Q238.32313262518971 14.556253717754169 239.33634597875573 15.12745371775417Q240.34955933232175 15.698653717754171 240.94914597875572 16.752420333839147Q241.54873262518973 17.806186949924125 241.54873262518973 19.25330682852807Q241.54873262518973 20.700426707132017 240.94914597875572 21.754193323216995Q240.34955933232175 22.80795993930197 239.33634597875573 23.384953262518966Q238.32313262518971 23.961946585735962 237.07703915022765 23.961946585735962ZM231.3568940819424 23.814799999999998V11.349199999999996H234.54894506828532V16.23738816388467L234.3809450682853 19.24809347496206L234.3954251896814 22.258798786039453V23.814799999999998ZM236.40444006069808 21.42221487101669Q236.9443471927163 21.42221487101669 237.37418755690445 21.171088012139602Q237.8040279210926 20.919961153262516 238.0603681335357 20.427554172989375Q238.3167083459788 19.935147192716236 238.3167083459788 19.25330682852807Q238.3167083459788 18.554666464339906 238.0603681335357 18.076452807283758Q237.8040279210926 17.598239150227613 237.37418755690445 17.347112291350527Q236.9443471927163 17.09598543247344 236.40444006069808 17.09598543247344Q235.86453292867986 17.09598543247344 235.43469256449168 17.347112291350527Q235.00485220030353 17.598239150227613 234.74851198786044 18.076452807283758Q234.49217177541735 18.554666464339906 234.49217177541735 19.25330682852807Q234.49217177541735 19.935147192716236 234.74851198786044 20.427554172989375Q235.00485220030353 20.919961153262516 235.43469256449168 21.171088012139602Q235.86453292867986 21.42221487101669 236.40444006069808 21.42221487101669Z M250.86514840667684 23.814799999999998V12.054799999999997H254.1939192716237V23.814799999999998ZM243.01377420333844 23.814799999999998V12.054799999999997H246.34254506828532V23.814799999999998ZM246.10502518968138 19.23015902883156V16.466227617602424H251.09745493171476V19.23015902883156Z"/>
  <path fill="#E1322A" d="M58.022827765011925 35.37632000000001V28.432320000000008H63.26626171255149V29.72520480381531H59.63368480381531V35.37632000000001ZM59.51087937567743 32.848966139171914V31.55608133535661H62.847570188597444V32.848966139171914Z M69.23107728593108 35.49313966616086Q67.7536725254715 35.49313966616086 66.92073014524172 34.67200000000001Q66.08778776501192 33.85086033383916 66.08778776501192 32.31736338174724V28.432320000000008H67.69864480381531V32.26588066767831Q67.69864480381531 33.25102505094299 68.10604004335573 33.691088766529376Q68.51343528289617 34.131152482115766 69.24493152395405 34.131152482115766Q69.98036200303491 34.131152482115766 70.38579012356385 33.691088766529376Q70.79121824409279 33.25102505094299 70.79121824409279 32.26588066767831V28.432320000000008H72.37436680685022V32.31736338174724Q72.37436680685022 33.85086033383916 71.54142442662044 34.67200000000001Q70.70848204639064 35.49313966616086 69.23107728593108 35.49313966616086Z M78.03371390418383 35.49313966616086Q77.20265423802299 35.49313966616086 76.43710033383915 35.270796618252774Q75.67154642965532 35.048453570344684 75.20564404942554 34.69509899848256L75.75006238022979 33.47969148059832Q76.1921905224366 33.79730029048342 76.8052634034251 34.000829100368534Q77.41833628441361 34.20435791025364 78.04158238022978 34.20435791025364Q78.52252066767831 34.20435791025364 78.81472574029917 34.10883893344896Q79.10693081292001 34.013319956644274 79.24409690873618 33.84519928896597Q79.38126300455235 33.67707862128767 79.38126300455235 33.46226642965533Q79.38126300455235 33.184000000000005 79.1609714805983 33.0180152612183Q78.94067995664427 32.8520305224366 78.58347555170172 32.74770171255149Q78.22627114675916 32.643372902666385 77.79560809885108 32.55007425970085Q77.36494505094299 32.45677561673532 76.93231488402341 32.32088849772383Q76.49968471710385 32.18500137871234 76.1424803121613 31.965820021677875Q75.78527590721873 31.746638664643406 75.56498438326469 31.386610188597448Q75.34469285931065 31.02658171255149 75.34469285931065 30.471061712551492Q75.34469285931065 29.880133570344682 75.66487252547151 29.391313904183832Q75.98505219163235 28.902494238022985 76.6354159288966 28.60899728593107Q77.28577966616085 28.315500333839157 78.27333899848256 28.315500333839157Q78.92378714068936 28.315500333839157 79.5603810448732 28.470286095816178Q80.19697494905702 28.625071857793202 80.6827173292868 28.92660609581618L80.18191323650554 30.14406513765446Q79.70198780836766 29.8681878517234 79.21188916540213 29.736234970734888Q78.72179052243659 29.604282089746377 78.25948476045957 29.604282089746377Q77.79051799696511 29.604282089746377 77.49634580533277 29.71168818556255Q77.20217361370041 29.81909428137872 77.06996751788424 29.996109187080002Q76.93776142206808 30.17312409278128 76.93776142206808 30.393922046390642Q76.93776142206808 30.668254238022985 77.15805294602211 30.832271857793202Q77.37834446997616 30.996289477563415 77.73554887491872 31.095658287448522Q78.09275327986127 31.19502709733363 78.52538344678084 31.289351502276183Q78.95801361370042 31.383675907218738 79.3886766616085 31.516570145241715Q79.81933970951658 31.649464383264693 80.17654411445915 31.86565285931065Q80.5337485194017 32.08184133535661 80.75404004335573 32.43990269239107Q80.97433156730978 32.797964049425545 80.97433156730978 33.343564049425545Q80.97433156730978 33.92457219163235 80.65115902016042 34.4133918577932Q80.32798647301107 34.90221152395405 79.67659697376979 35.197675595057454Q79.02520747452851 35.49313966616086 78.03371390418383 35.49313966616086Z M86.14827390418382 35.49313966616086Q85.31721423802298 35.49313966616086 84.55166033383915 35.270796618252774Q83.78610642965532 35.048453570344684 83.32020404942554 34.69509899848256L83.86462238022979 33.47969148059832Q84.3067505224366 33.79730029048342 84.91982340342511 34.000829100368534Q85.53289628441361 34.20435791025364 86.15614238022978 34.20435791025364Q86.6370806676783 34.20435791025364 86.92928574029915 34.10883893344896Q87.22149081292001 34.013319956644274 87.35865690873618 33.84519928896597Q87.49582300455235 33.67707862128767 87.49582300455235 33.46226642965533Q87.49582300455235 33.184000000000005 87.27553148059832 33.0180152612183Q87.05523995664427 32.8520305224366 86.69803555170171 32.74770171255149Q86.34083114675916 32.643372902666385 85.91016809885107 32.55007425970085Q85.47950505094299 32.45677561673532 85.04687488402342 32.32088849772383Q84.61424471710384 32.18500137871234 84.25704031216128 31.965820021677875Q83.89983590721873 31.746638664643406 83.6795443832647 31.386610188597448Q83.45925285931065 31.02658171255149 83.45925285931065 30.471061712551492Q83.45925285931065 29.880133570344682 83.77943252547149 29.391313904183832Q84.09961219163235 28.902494238022985 84.74997592889659 28.60899728593107Q85.40033966616085 28.315500333839157 86.38789899848256 28.315500333839157Q87.03834714068935 28.315500333839157 87.67494104487318 28.470286095816178Q88.31153494905702 28.625071857793202 88.7972773292868 28.92660609581618L88.29647323650553 30.14406513765446Q87.81654780836766 29.8681878517234 87.32644916540212 29.736234970734888Q86.83635052243659 29.604282089746377 86.37404476045957 29.604282089746377Q85.9050779969651 29.604282089746377 85.61090580533276 29.71168818556255Q85.31673361370042 29.81909428137872 85.18452751788425 29.996109187080002Q85.05232142206808 30.17312409278128 85.05232142206808 30.393922046390642Q85.05232142206808 30.668254238022985 85.27261294602212 30.832271857793202Q85.49290446997615 30.996289477563415 85.8501088749187 31.095658287448522Q86.20731327986127 31.19502709733363 86.63994344678085 31.289351502276183Q87.07257361370041 31.383675907218738 87.5032366616085 31.516570145241715Q87.93389970951658 31.649464383264693 88.29110411445913 31.86565285931065Q88.6483085194017 32.08184133535661 88.86860004335574 32.43990269239107Q89.08889156730979 32.797964049425545 89.08889156730979 33.343564049425545Q89.08889156730979 33.92457219163235 88.76571902016042 34.4133918577932Q88.44254647301106 34.90221152395405 87.79115697376979 35.197675595057454Q87.13976747452851 35.49313966616086 86.14827390418382 35.49313966616086Z M91.97898776501192 35.37632000000001V28.432320000000008H95.37182238022979Q96.67853561673532 28.432320000000008 97.34206544981575 28.92823559505745Q98.00559528289617 29.424151190114898 98.00559528289617 30.241694238022987Q98.00559528289617 30.78541152395405 97.73689833080425 31.185120000000005Q97.46820137871234 31.584828476045963 96.99947492737914 31.8049511901149Q96.53074847604596 32.025073904183834 95.9268101452417 32.025073904183834L96.11323862128766 31.615094905701287Q96.7710488098851 31.615094905701287 97.27449526121829 31.83128338174724Q97.77794171255148 32.0474718577932 98.06442714068936 32.464027452850644Q98.35091256882723 32.88058304790809 98.35091256882723 33.47971728593107Q98.35091256882723 34.37645152395405 97.6468457836549 34.87638576197703Q96.94277899848255 35.37632000000001 95.57022238022978 35.37632000000001ZM93.5741078517234 34.17049486234555H95.45562304790809Q96.07594776501192 34.17049486234555 96.4010745285064 33.962778599609805Q96.72620129200087 33.75506233687406 96.72620129200087 33.31363523954044Q96.72620129200087 32.872208142206816 96.4010745285064 32.66149899848256Q96.07594776501192 32.4507898547583 95.45562304790809 32.4507898547583H93.45728818556255V31.28037285931065H95.17409761977021Q95.7624420030349 31.28037285931065 96.07166300455236 31.07462371558639Q96.3808840060698 30.868874571862136 96.3808840060698 30.459258998482557Q96.3808840060698 30.04570918708 96.07166300455236 29.84192716236723Q95.7624420030349 29.638145137654462 95.17409761977021 29.638145137654462H93.5741078517234Z M104.72195199884383 35.49313966616086Q103.90203009350385 35.49313966616086 103.20547097564852 35.22529966616086Q102.5089118577932 34.95745966616086 101.99811626273575 34.472405428137876Q101.48732066767829 33.9873511901149 101.20365931064381 33.33326933840487Q100.91999795360935 32.679187486694836 100.91999795360935 31.902465287789173Q100.91999795360935 31.12574308888351 101.20367233792204 30.474359000389235Q101.48734672223473 29.822974911894963 101.99889063693209 29.336213905534805Q102.51043455162944 28.849452899174647 103.20464643771504 28.582476616506902Q103.89885832380062 28.315500333839157 104.71868271406893 28.315500333839157Q105.54187390418382 28.315500333839157 106.23268279644482 28.581412034678774Q106.92349168870582 28.84732373551839 107.43376231631596 29.332156442718166Q107.9440329439261 29.81698914991794 108.2277073282388 30.470438913133698Q108.51138171255148 31.123888676349452 108.51138171255148 31.903063863986876Q108.51138171255148 32.6822390516243 108.22772035551702 33.337788001858115Q107.94405899848255 33.99333695209192 107.43377534359419 34.47732660828677Q106.92349168870582 34.961316264481624 106.23268279644482 35.22722796532124Q105.54187390418382 35.49313966616086 104.72195199884383 35.49313966616086ZM104.71850655415746 34.131152482115766Q105.18371523954042 34.131152482115766 105.57761522589139 33.969320651811955Q105.97151521224237 33.80748882150814 106.26515960915609 33.51035829326003Q106.55880400606979 33.21322776501193 106.72273722089746 32.80522007485Q106.88667043572512 32.39721238468807 106.88667043572512 31.902512977516377Q106.88667043572512 31.407813570344686 106.72340977842296 31.002126947110977Q106.56014912112082 30.596440323877268 106.26621826452032 30.29897803644861Q105.97228740791981 30.00151574901995 105.57817748364158 29.8395016334521Q105.18406755936337 29.67748751788425 104.71885887398041 29.67748751788425Q104.25365018859743 29.67748751788425 103.85797415218836 29.83969577174809Q103.46229811577929 30.00190402561193 103.16733600430635 30.29971964473928Q102.8723738928334 30.597535263866632 102.70854156163455 31.00369170177663Q102.54470923043571 31.409848139686627 102.54470923043571 31.902344403682466Q102.54470923043571 32.39484066767831 102.7082657189851 32.80284835784023Q102.87182220753449 33.210856048002164 103.16628672050255 33.51006393121982Q103.46075123347062 33.809271814437466 103.85702455112255 33.970212148276616Q104.25329786877448 34.131152482115766 104.71850655415746 34.131152482115766Z M111.51146776501191 35.37632000000001V28.432320000000008H114.66450847604595Q115.80120542813786 28.432320000000008 116.66313526121829 28.86289864296554Q117.52506509429871 29.293477285931072 118.00909357034467 30.070230166919583Q118.49312204639062 30.846983047908093 118.49312204639062 31.904320000000006Q118.49312204639062 32.95772271406894 118.00909357034467 33.73644271406894Q117.52506509429871 34.51516271406894 116.66313526121829 34.94574135703448Q115.80120542813786 35.37632000000001 114.66450847604595 35.37632000000001ZM113.1223248038153 34.05982976804683H114.58925152395403Q115.28278166919574 34.05982976804683 115.79245419466724 33.79652774333407Q116.30212672013873 33.533225718621296 116.5852687448515 33.047496241057885Q116.86841076956426 32.561766763494475 116.86841076956426 31.904320000000006Q116.86841076956426 31.236953236505535 116.5852687448515 30.75618375894213Q116.30212672013873 30.27541428137872 115.79245419466724 30.01211225666595Q115.28278166919574 29.748810231953183 114.58925152395403 29.748810231953183H113.1223248038153Z M121.49098776501192 35.37632000000001V28.432320000000008H126.73442171255148V29.72520480381531H123.0861078517234V34.0834351961847H126.8693674745285V35.37632000000001ZM122.96928818556255 32.47644680685021V31.22700743117278H126.31573018859744V32.47644680685021Z M129.93290776501195 35.37632000000001V28.432320000000008H131.25881156730978L135.35897895512682 33.436389057012796H134.71758095816173V28.432320000000008H136.30483256882724V35.37632000000001H134.97892876652938L130.87876137871234 30.37225094298722H131.52015937567745V35.37632000000001Z M144.49493553002387 35.37632000000001V28.432320000000008H146.10579256882724V35.37632000000001ZM139.73386776501195 35.37632000000001V28.432320000000008H141.34472480381532V35.37632000000001ZM141.22191937567746 32.529643425102975V31.173810812920017H144.6117551961847V32.529643425102975Z M149.53482776501195 35.37632000000001V28.432320000000008H154.7782617125515V29.72520480381531H151.12994785172341V34.0834351961847H154.91320747452852V35.37632000000001ZM151.01312818556255 32.47644680685021V31.22700743117278H154.35957018859744V32.47644680685021Z M157.97674776501196 35.37632000000001V28.432320000000008H159.58760480381534V35.37632000000001Z M162.57057761977023 35.37632000000001V34.33896605246044L166.87035248211578 29.15889494905702L167.06226029048344 29.744875993930204H162.65182033383917V28.432320000000008H168.49711528289617V29.46967394753957L164.20332618252766 34.649745050943L164.00543261218297 34.06376400606981H168.6378779969651V35.37632000000001Z M174.5417972859311 35.49313966616086Q173.06439252547153 35.49313966616086 172.23145014524175 34.67200000000001Q171.39850776501194 33.85086033383916 171.39850776501194 32.31736338174724V28.432320000000008H173.00936480381534V32.26588066767831Q173.00936480381534 33.25102505094299 173.41676004335577 33.691088766529376Q173.82415528289619 34.131152482115766 174.55565152395408 34.131152482115766Q175.29108200303492 34.131152482115766 175.69651012356388 33.691088766529376Q176.10193824409282 33.25102505094299 176.10193824409282 32.26588066767831V28.432320000000008H177.68508680685022V32.31736338174724Q177.68508680685022 33.85086033383916 176.85214442662044 34.67200000000001Q176.01920204639066 35.49313966616086 174.5417972859311 35.49313966616086Z M181.06058776501197 35.37632000000001V28.432320000000008H182.3864915673098L186.48665895512684 33.436389057012796H185.84526095816176V28.432320000000008H187.43251256882726V35.37632000000001H186.1066087665294L182.00644137871237 30.37225094298722H182.64783937567748V35.37632000000001Z M194.21110576197705 35.49313966616086Q193.39184880988515 35.49313966616086 192.7005260958162 35.23025966616086Q192.00920338174728 34.96737966616086 191.50037490570134 34.484292547149366Q190.99154642965536 34.00120542813788 190.70985219163236 33.34554407110341Q190.4281579536094 32.68988271406894 190.4281579536094 31.904320000000006Q190.4281579536094 31.11875728593107 190.70985219163236 30.463095928896603Q190.99154642965536 29.807434571862135 191.50533490570132 29.324347452850645Q192.01912338174728 28.841260333839156 192.7143803338392 28.578380333839156Q193.4096372859311 28.315500333839157 194.242748476046 28.315500333839157Q195.16668476045962 28.315500333839157 195.90632849772385 28.62080000000001Q196.6459722349881 28.92609966616086 197.14778918708004 29.511042046390642L196.12274438326472 30.465270565792334Q195.74151252547153 30.064367517884246 195.2967420247128 29.870927517884247Q194.8519715239541 29.67748751788425 194.31988814220685 29.67748751788425Q193.81927866464343 29.67748751788425 193.40204783004555 29.838427851723395Q192.9848169954477 29.999368185562545 192.68277632776937 30.29636444829829Q192.3807356600911 30.59336071103404 192.21680244526343 31.000587140689362Q192.05286923043576 31.407813570344686 192.05286923043576 31.904320000000006Q192.05286923043576 32.38697219163235 192.21680244526343 32.79616574029916Q192.3807356600911 33.20535928896597 192.68277632776937 33.505348432690226Q192.9848169954477 33.80533757641449 193.39512071103405 33.96824502926513Q193.80542442662045 34.131152482115766 194.3020996661609 34.131152482115766Q194.7827003338392 34.131152482115766 195.23148947756346 33.97628231519619Q195.6802786212877 33.821412148276615 196.11282438326472 33.452151814437464L197.0212183308043 34.61025966616086Q196.45218171255152 35.042805428137875 195.70458509429875 35.26797254714937Q194.956988476046 35.49313966616086 194.21110576197705 35.49313966616086ZM197.0212183308043 34.61025966616086 195.55626571862132 34.40244609581618V31.793654905701285H197.0212183308043Z M204.88842776501198 35.37632000000001V28.432320000000008H210.13186171255154V29.72520480381531H206.48354785172344V34.0834351961847H210.26680747452855V35.37632000000001ZM206.36672818556258 32.47644680685021V31.22700743117278H209.71317018859747V32.47644680685021Z M213.330347765012 35.37632000000001V28.432320000000008H214.94120480381537V35.37632000000001Z M218.36970776501198 35.37632000000001V28.432320000000008H219.6956115673098L223.79577895512685 33.436389057012796H223.15438095816177V28.432320000000008H224.74163256882727V35.37632000000001H223.4157287665294L219.31556137871237 30.37225094298722H219.95695937567749V35.37632000000001Z M228.17066776501198 35.37632000000001V28.432320000000008H233.41410171255154V29.72520480381531H229.78152480381536V35.37632000000001ZM229.6587193756775 32.848966139171914V31.55608133535661H232.99541018859748V32.848966139171914Z M236.295147765012 35.37632000000001V28.432320000000008H239.25765695209196Q240.71111866464346 28.432320000000008 241.51446985475835 29.10371830912639Q242.31782104487323 29.77511661825277 242.31782104487323 30.949442046390644Q242.31782104487323 31.723033236505536 241.95189121179283 32.28240306958596Q241.5859613787124 32.841772902666385 240.909603069586 33.14031425970085Q240.23324476045963 33.43885561673532 239.29699933232175 33.43885561673532H237.1876359505745L237.90600480381536 32.739989143724266V35.37632000000001ZM240.71500129200092 35.37632000000001 238.9728467201388 32.85270576197703H240.69265494905707L242.44866375894216 35.37632000000001ZM237.90600480381536 32.91410847604597 237.1876359505745 32.15794233687406H239.214042714069Q239.9515247171039 32.15794233687406 240.32231724257537 31.83794438326469Q240.69310976804687 31.51794642965533 240.69310976804687 30.949442046390644Q240.69310976804687 30.374951901148933 240.32231724257537 30.05794682852808Q239.9515247171039 29.740941755907226 239.214042714069 29.740941755907226H237.1876359505745L237.90600480381536 28.978789854758297Z M244.45641219163238 35.37632000000001 247.5517898114026 28.432320000000008H249.14092413613704L252.24228751788428 35.37632000000001H250.56404200303496L248.01684814220684 29.250057663125958H248.65414309126388L246.10694923043576 35.37632000000001ZM246.01045018859747 33.89073494905702 246.43206309126387 32.67122438326469H250.00939185779325L250.43699052243664 33.89073494905702ZM249.354697663126 27.814553236505535Q249.06752409278133 27.814553236505535 248.86646883156303 27.627352213310218Q248.66541357034473 27.4401511901149 248.66541357034473 27.13313761977022Q248.66541357034473 26.826124049425545 248.86646883156303 26.636955907218738Q249.06752409278133 26.44778776501193 249.354697663126 26.44778776501193Q249.64187123347068 26.44778776501193 249.84292649468898 26.636955907218738Q250.04398175590728 26.826124049425545 250.04398175590728 27.13313761977022Q250.04398175590728 27.4401511901149 249.84292649468898 27.627352213310218Q249.64187123347068 27.814553236505535 249.354697663126 27.814553236505535ZM247.3440020463907 27.814553236505535Q247.056828476046 27.814553236505535 246.8557732148277 27.627352213310218Q246.6547179536094 27.4401511901149 246.6547179536094 27.13313761977022Q246.6547179536094 26.826124049425545 246.8557732148277 26.636955907218738Q247.056828476046 26.44778776501193 247.3440020463907 26.44778776501193Q247.63117561673536 26.44778776501193 247.83223087795366 26.636955907218738Q248.03328613917196 26.826124049425545 248.03328613917196 27.13313761977022Q248.03328613917196 27.4401511901149 247.83223087795366 27.627352213310218Q247.63117561673536 27.814553236505535 247.3440020463907 27.814553236505535Z M257.0401139041839 35.49313966616086Q256.20905423802304 35.49313966616086 255.4435003338392 35.270796618252774Q254.67794642965538 35.048453570344684 254.21204404942557 34.69509899848256L254.75646238022983 33.47969148059832Q255.19859052243663 33.79730029048342 255.81166340342514 34.000829100368534Q256.42473628441365 34.20435791025364 257.0479823802298 34.20435791025364Q257.52892066767834 34.20435791025364 257.8211257402992 34.10883893344896Q258.1133308129201 34.013319956644274 258.25049690873624 33.84519928896597Q258.3876630045524 33.67707862128767 258.3876630045524 33.46226642965533Q258.3876630045524 33.184000000000005 258.1673714805984 33.0180152612183Q257.9470799566443 32.8520305224366 257.58987555170177 32.74770171255149Q257.23267114675923 32.643372902666385 256.80200809885116 32.55007425970085Q256.37134505094303 32.45677561673532 255.93871488402345 32.32088849772383Q255.50608471710387 32.18500137871234 255.14888031216134 31.965820021677875Q254.79167590721877 31.746638664643406 254.57138438326473 31.386610188597448Q254.35109285931068 31.02658171255149 254.35109285931068 30.471061712551492Q254.35109285931068 29.880133570344682 254.67127252547152 29.391313904183832Q254.9914521916324 28.902494238022985 255.64181592889665 28.60899728593107Q256.2921796661609 28.315500333839157 257.27973899848257 28.315500333839157Q257.9301871406894 28.315500333839157 258.5667810448732 28.470286095816178Q259.20337494905704 28.625071857793202 259.68911732928683 28.92660609581618L259.18831323650556 30.14406513765446Q258.7083878083677 29.8681878517234 258.2182891654022 29.736234970734888Q257.72819052243665 29.604282089746377 257.26588476045964 29.604282089746377Q256.79691799696513 29.604282089746377 256.5027458053328 29.71168818556255Q256.2085736137005 29.81909428137872 256.0763675178843 29.996109187080002Q255.9441614220681 30.17312409278128 255.9441614220681 30.393922046390642Q255.9441614220681 30.668254238022985 256.16445294602215 30.832271857793202Q256.3847444699762 30.996289477563415 256.74194887491876 31.095658287448522Q257.0991532798613 31.19502709733363 257.5317834467809 31.289351502276183Q257.96441361370046 31.383675907218738 258.3950766616085 31.516570145241715Q258.82573970951665 31.649464383264693 259.1829441144592 31.86565285931065Q259.5401485194017 32.08184133535661 259.76044004335574 32.43990269239107Q259.9807315673098 32.797964049425545 259.9807315673098 33.343564049425545Q259.9807315673098 33.92457219163235 259.6575590201604 34.4133918577932Q259.3343864730111 34.90221152395405 258.68299697376983 35.197675595057454Q258.0316074745285 35.49313966616086 257.0401139041839 35.49313966616086Z M262.870827765012 35.37632000000001V28.432320000000008H268.1142617125515V29.72520480381531H264.46594785172346V34.0834351961847H268.2492074745286V35.37632000000001ZM264.3491281855626 32.47644680685021V31.22700743117278H267.6955701885975V32.47644680685021Z M271.312747765012 35.37632000000001V28.432320000000008H272.6386515673098L276.7388189551269 33.436389057012796H276.09742095816176V28.432320000000008H277.6846725688273V35.37632000000001H276.3587687665294L272.2586013787124 30.37225094298722H272.89999937567745V35.37632000000001Z"/>
</svg>
